<?xml version="1.0" standalone="no"?>
<!DOCTYPE svg PUBLIC "-//W3C//DTD SVG 20010904//EN"
 "http://www.w3.org/TR/2001/REC-SVG-20010904/DTD/svg10.dtd">
<svg version="1.0" xmlns="http://www.w3.org/2000/svg"
 width="922.000000pt" height="922.000000pt" viewBox="0 0 922.000000 922.000000"
 preserveAspectRatio="xMidYMid meet">
<metadata>
Created by potrace 1.11, written by Peter Selinger 2001-2013
</metadata>
<g transform="translate(0.000000,922.000000) scale(0.100000,-0.100000)"
fill="#000000" stroke="none">
<path d="M5213 7149 c-645 -967 -1169 -1759 -1165 -1759 4 0 208 91 455 201
246 111 449 200 451 198 2 -2 -311 -539 -695 -1194 -384 -654 -697 -1191 -695
-1193 2 -2 198 94 436 213 238 119 434 215 435 213 2 -2 -358 -777 -801 -1723
-919 -1968 -850 -1818 -826 -1786 73 100 2836 4436 2828 4438 -6 1 -211 -53
-456 -121 -245 -68 -447 -122 -449 -120 -2 2 276 447 617 991 342 543 620 988
619 990 -2 1 -207 -54 -456 -123 -250 -68 -455 -123 -456 -122 -2 2 298 599
666 1327 368 728 668 1325 667 1326 -2 2 -530 -788 -1175 -1756z"/>
</g>
</svg>
